<?xml version="1.0" encoding="UTF-8"?>
<svg width="54px" height="43px" viewBox="0 0 54 43" version="1.1" xmlns="http://www.w3.org/2000/svg" xmlns:xlink="http://www.w3.org/1999/xlink">
    <!-- Generator: Sketch 63.1 (92452) - https://sketch.com -->
    <title>heart</title>
    <desc>Created with Sketch.</desc>
    <g id="Page-1" stroke="none" stroke-width="1" fill="none" fill-rule="evenodd">
        <g id="Home" transform="translate(-161.000000, -463.000000)" fill="#F7CC00" fill-rule="nonzero">
            <g id="Emotion-Cycle" transform="translate(0.000000, 334.000000)">
                <g id="Group-2" transform="translate(106.000000, 129.000000)">
                    <g id="heart" transform="translate(55.500000, 0.000000)">
                        <path d="M45.7883733,12.0202312 C45.4434549,11.1836159 44.4752974,10.7809412 43.6261237,11.1204713 C42.7767427,11.4602058 42.3678198,12.4137101 42.7126345,13.2502231 C44.6517504,17.9547023 38.1351261,23.955179 34.0413334,27.0715401 C32.7917432,28.0226944 33.4791941,30 35.0574164,30 C35.4118784,30 35.7690376,29.8886284 36.0712172,29.6586307 C41.735867,25.3465065 48.4708532,18.5272954 45.7883733,12.0202312 L45.7883733,12.0202312 Z" id="Path"></path>
                        <path d="M39.5960908,9.72668739 C40.2149646,9.86503188 40.3243423,10 40.7953462,10 C41.4271174,10 42.0257953,9.67361783 42.2781439,9.13547682 C42.6104761,8.42661283 42.2161565,7.61870873 41.3976234,7.33102492 C41.0724897,7.21674787 40.7354584,7.12030497 40.3960277,7.04437999 C39.5406021,6.85296593 38.66808,7.29847327 38.447225,8.03919632 C38.2263701,8.77991937 38.7406652,9.53544649 39.5960908,9.72668739 L39.5960908,9.72668739 Z" id="Path"></path>
                        <path d="M38.500562,0 C33.9544717,0 29.7027235,2.06854745 26.8967853,5.52911611 C24.090847,2.06854745 19.8390989,0 15.2930086,0 C4.14219356,0 -5.37300695,12.7055659 4.57888926,26.2752661 C6.734498,29.2144599 9.72102003,32.1531369 13.4555712,35.0096384 C19.7431605,39.8190216 25.9352259,42.723588 26.1957928,42.8448356 C26.6394301,43.0513595 27.1524828,43.0520831 27.5977777,42.8448356 C27.8583447,42.723588 34.0503064,39.8190216 40.3379993,35.0096384 C44.0724469,32.1531369 47.0590726,29.2145633 49.2146813,26.2752661 C59.1538341,12.7229312 49.6736521,0 38.500562,0 Z M26.8967853,39.5033438 C22.9461137,37.5174886 3.68923185,27.2014196 3.68923185,14.8845075 C3.68923185,8.50097338 8.89466536,3.30758794 15.2930086,3.30758794 C19.5084949,3.30758794 23.3993863,5.59547667 25.4472456,9.27838421 C26.0773722,10.4115786 27.7155768,10.412819 28.3463249,9.27838421 C30.3941843,5.59547667 34.2849721,3.30758794 38.500562,3.30758794 C44.8989052,3.30758794 50.1043387,8.50097338 50.1043387,14.8845075 C50.1043387,27.201523 30.847146,37.5176954 26.8967853,39.5033438 Z" id="Shape"></path>
                    </g>
                </g>
            </g>
        </g>
    </g>
</svg>