<?xml version="1.0" encoding="UTF-8"?>
<svg width="44px" height="55px" viewBox="0 0 44 55" version="1.1" xmlns="http://www.w3.org/2000/svg" xmlns:xlink="http://www.w3.org/1999/xlink">
    <!-- Generator: Sketch 63.1 (92452) - https://sketch.com -->
    <title>privacy</title>
    <desc>Created with Sketch.</desc>
    <g id="Page-1" stroke="none" stroke-width="1" fill="none" fill-rule="evenodd">
        <g id="Home" transform="translate(-166.000000, -121.000000)" fill="#F7CC00" fill-rule="nonzero">
            <g id="Stop-Moment" transform="translate(-6.000000, -11.000000)">
                <g id="Group-3" transform="translate(116.000000, 132.000000)">
                    <g id="privacy" transform="translate(56.000000, 0.000000)">
                        <path d="M41.9449642,21.876762 C40.2326677,20.1486047 37.4478119,20.1486047 35.7358486,21.8770983 L28.926313,28.7587833 L28.926313,10.3285816 C28.926313,7.88501171 26.9567888,5.89685726 24.5357835,5.89685726 C23.7147875,5.89685726 22.94577,6.12658313 22.2877071,6.5241467 L22.2877071,4.43172434 C22.2877071,1.98815443 20.318183,0 17.897844,0 C15.4768387,0 13.5076478,1.98815443 13.5076478,4.43172434 L13.5076478,6.5241467 C12.8495848,6.12658313 12.0805674,5.89685726 11.2592382,5.89685726 C8.83889925,5.89685726 6.86937508,7.88501171 6.86937508,10.3285816 L6.86937508,15.0347661 C6.21131209,14.6372026 5.44229479,14.4074767 4.62096551,14.4074767 C2.2002934,14.4074767 0.230769231,16.3956312 0.230769231,18.8392011 L0.230769231,29.2451428 C0.230769231,30.633252 2.37288911,30.6352701 2.37288911,29.2451428 L2.37288911,18.8392011 C2.37288911,17.5879856 3.38114158,16.5695232 4.62096551,16.5695232 C5.86078952,16.5695232 6.86937508,17.5879856 6.86937508,18.8392011 L6.86937508,28.3100948 C6.86937508,29.6982039 9.01082861,29.6998856 9.01082861,28.3100948 L9.01082861,10.3285816 C9.01082861,9.07736618 10.0197474,8.05924014 11.2592382,8.05924014 C12.4987289,8.05924014 13.5076478,9.07736618 13.5076478,10.3285816 L13.5076478,28.3100948 C13.5076478,29.6982039 15.6494345,29.6998856 15.6494345,28.3100948 L15.6494345,4.43172434 C15.6494345,3.18050891 16.6576868,2.16204645 17.897844,2.16204645 C19.1373348,2.16204645 20.1455872,3.18050891 20.1455872,4.43172434 L20.1455872,28.3100948 C20.1455872,29.6982039 22.2877071,29.6998856 22.2877071,28.3100948 L22.2877071,10.3285816 C22.2877071,9.07736618 23.2962928,8.05924014 24.5357835,8.05924014 C25.7756075,8.05924014 26.784193,9.07736618 26.784193,10.3285816 L26.784193,31.3705273 C26.784193,32.3005302 27.9533794,32.8000073 28.6127751,32.1343742 L37.2505596,23.4054647 C38.1271994,22.5205325 39.5539466,22.5205325 40.4302532,23.4054647 C41.306893,24.290397 41.306893,25.7299674 40.4309196,26.6142269 L40.3442885,26.7013411 C36.1050302,30.9736364 32.8190469,36.0965564 30.5786341,41.9288348 C29.3964531,45.0057485 27.7871143,47.4832895 25.7962656,49.2931795 C23.2079957,51.6449263 19.9699927,52.8376171 16.1715533,52.8376171 C8.56267942,52.8376171 2.37255594,46.5886033 2.37255594,38.9080913 L2.37255594,37.9114915 C2.37255594,36.5233823 0.230769231,36.5213642 0.230769231,37.9114915 L0.230769231,38.9080913 C0.230769231,47.7812941 7.38183124,55 16.1715533,55 C20.5154353,55 24.2355735,53.6202995 27.2293435,50.899915 C29.4720887,48.8613083 31.2706831,46.1062799 32.5751472,42.7111808 C34.7076044,37.1607622 37.8306546,32.2894307 41.8573336,28.2317255 L41.9449642,28.1436024 C42.773957,27.3064316 43.2307692,26.1937916 43.2307692,25.0098458 C43.2307692,23.8262364 42.773957,22.7135964 41.9449642,21.876762 L41.9449642,21.876762 Z" id="Path"></path>
                        <path d="M1.23123791,35 C1.77536146,35 2.23045797,34.5431773 2.23076923,34.0001557 C2.23076923,33.4562006 1.77536146,33 1.23123791,33 C0.702678494,32.999689 0.255364131,33.4291273 0.231706586,33.9562783 C0.20711517,34.5164151 0.669682483,35 1.23123791,35 L1.23123791,35 Z" id="Path"></path>
                    </g>
                </g>
            </g>
        </g>
    </g>
</svg>